<svg xmlns="http://www.w3.org/2000/svg" width="600" height="400" style="background:#fff">
  <text x="300" y="20" text-anchor="middle" font-size="16" font-weight="bold">Hipervolumen por algoritmo y N</text>
  <text x="300" y="390" text-anchor="middle" font-size="14">N (nodos)</text>
  <text x="15" y="200" text-anchor="middle" font-size="14" transform="rotate(-90 15 200)">Hipervolumen</text>
  <rect x="45.3" y="40.2" width="21.125" height="299.8" fill="#1f77b4" />
<rect x="68.4" y="40.2" width="21.125" height="299.8" fill="#ff7f0e" />
<rect x="91.6" y="40.2" width="21.125" height="299.8" fill="#2ca02c" />
<rect x="168.6" y="154.3" width="21.125" height="185.7" fill="#1f77b4" />
<rect x="191.8" y="142.8" width="21.125" height="197.2" fill="#ff7f0e" />
<rect x="214.9" y="142.8" width="21.125" height="197.2" fill="#2ca02c" />
<rect x="292.0" y="303.0" width="21.125" height="37.0" fill="#1f77b4" />
<rect x="315.1" y="222.1" width="21.125" height="117.9" fill="#ff7f0e" />
<rect x="338.2" y="264.7" width="21.125" height="75.3" fill="#2ca02c" />
<rect x="415.3" y="340.0" width="21.125" height="0.0" fill="#1f77b4" />
<rect x="438.4" y="289.6" width="21.125" height="50.4" fill="#ff7f0e" />
<rect x="461.6" y="323.2" width="21.125" height="16.8" fill="#2ca02c" />

  <text x="80" y="360" text-anchor="middle" font-size="12">10</text>
<text x="203.33333333333331" y="360" text-anchor="middle" font-size="12">15</text>
<text x="326.66666666666663" y="360" text-anchor="middle" font-size="12">20</text>
<text x="450" y="360" text-anchor="middle" font-size="12">25</text>
  <rect x="460" y="60" width="15" height="15" fill="#1f77b4" />
<text x="480" y="72" font-size="12">exact_bb</text>
<rect x="460" y="85" width="15" height="15" fill="#ff7f0e" />
<text x="480" y="97" font-size="12">geo_heuristic</text>
<rect x="460" y="110" width="15" height="15" fill="#2ca02c" />
<text x="480" y="122" font-size="12">metaheuristic</text>

</svg>