<svg xmlns="http://www.w3.org/2000/svg" width="600" height="400" style="background:#fff">
  <text x="300" y="20" text-anchor="middle" font-size="16" font-weight="bold">Tiempo promedio vs N (log scale)</text>
  <text x="300" y="390" text-anchor="middle" font-size="14">N (nodos)</text>
  <text x="15" y="200" text-anchor="middle" font-size="14" transform="rotate(-90 15 200)">Tiempo (ms, log)</text>
  <path d="M80.0,217.4 L203.3,40.0 L326.7,40.0 L450.0,40.0" stroke="#1f77b4" stroke-width="2" fill="none" />
<circle cx="80.0" cy="217.4" r="4" fill="#1f77b4" />
<circle cx="203.3" cy="40.0" r="4" fill="#1f77b4" />
<circle cx="326.7" cy="40.0" r="4" fill="#1f77b4" />
<circle cx="450.0" cy="40.0" r="4" fill="#1f77b4" />
<path d="M80.0,330.2 L203.3,330.2 L326.7,330.2 L450.0,314.5" stroke="#ff7f0e" stroke-width="2" fill="none" />
<circle cx="80.0" cy="330.2" r="4" fill="#ff7f0e" />
<circle cx="203.3" cy="330.2" r="4" fill="#ff7f0e" />
<circle cx="326.7" cy="330.2" r="4" fill="#ff7f0e" />
<circle cx="450.0" cy="314.5" r="4" fill="#ff7f0e" />
<path d="M80.0,99.8 L203.3,112.0 L326.7,125.3 L450.0,128.5" stroke="#2ca02c" stroke-width="2" fill="none" />
<circle cx="80.0" cy="99.8" r="4" fill="#2ca02c" />
<circle cx="203.3" cy="112.0" r="4" fill="#2ca02c" />
<circle cx="326.7" cy="125.3" r="4" fill="#2ca02c" />
<circle cx="450.0" cy="128.5" r="4" fill="#2ca02c" />

  <text x="80" y="360" text-anchor="middle" font-size="12">10</text>
<text x="203.33333333333331" y="360" text-anchor="middle" font-size="12">15</text>
<text x="326.66666666666663" y="360" text-anchor="middle" font-size="12">20</text>
<text x="450" y="360" text-anchor="middle" font-size="12">25</text>
  <text x="70" y="319.82885773160734" text-anchor="end" font-size="12">1</text>
<text x="70" y="270.2193126526911" text-anchor="end" font-size="12">10</text>
<text x="70" y="205.69626892836777" text-anchor="end" font-size="12">100</text>
<text x="70" y="138.94966111175984" text-anchor="end" font-size="12">1000</text>
<text x="70" y="71.96875323542781" text-anchor="end" font-size="12">10000</text>
  <rect x="460" y="60" width="15" height="15" fill="#1f77b4" />
<text x="480" y="72" font-size="12">exact_bb</text>
<rect x="460" y="85" width="15" height="15" fill="#ff7f0e" />
<text x="480" y="97" font-size="12">geo_heuristic</text>
<rect x="460" y="110" width="15" height="15" fill="#2ca02c" />
<text x="480" y="122" font-size="12">metaheuristic</text>

</svg>